<?xml version="1.0" encoding="UTF-8" standalone="no"?>
<svg
   xmlns:dc="http://purl.org/dc/elements/1.1/"
   xmlns:cc="http://creativecommons.org/ns#"
   xmlns:rdf="http://www.w3.org/1999/02/22-rdf-syntax-ns#"
   xmlns:svg="http://www.w3.org/2000/svg"
   xmlns="http://www.w3.org/2000/svg"
   viewBox="0 0 377.94666 91.786667"
   height="91.786667"
   width="377.94666"
   xml:space="preserve"
   version="1.1"
   id="svg2"><metadata
     id="metadata8"><rdf:RDF><cc:Work
         rdf:about=""><dc:format>image/svg+xml</dc:format><dc:type
           rdf:resource="http://purl.org/dc/dcmitype/StillImage" /></cc:Work></rdf:RDF></metadata><defs
     id="defs6"><clipPath
       id="clipPath18"
       clipPathUnits="userSpaceOnUse"><path
         id="path20"
         d="m 0,0 2834.65,0 0,688 L 0,688 0,0 Z" /></clipPath></defs><g
     transform="matrix(1.3333333,0,0,-1.3333333,0,91.786667)"
     id="g10"><g
       transform="scale(0.1)"
       id="g12"><g
         id="g14"><g
           clip-path="url(#clipPath18)"
           id="g16"><path
             id="path22"
             style="fill:#7fb7ce;fill-opacity:1;fill-rule:nonzero;stroke:none"
             d="m 71.8594,119.246 c -8.2032,2.902 -17.6133,4.27 -25.4922,4.27 -21.5664,0 -38.32032,-11.282 -38.32032,-32.4926 0,-37.1367 51.33202,-29.7734 51.33202,-56.4726 0,-14.043 -13.6914,-19.5117 -23.4531,-19.5117 -8.7383,0 -18.9883,3.4179 -24.7969,5.8203 L 9.41797,4.96094 C 17.2812,2.39062 25.4766,0 33.8672,0 57.8359,0 77.5,10.0781 77.5,35.5742 c 0,39.3672 -51.332,34.0547 -51.332,56.9922 0,12.4926 11.2968,15.9176 20.8906,15.9176 8.8984,0 13.6875,-1.543 22.4102,-4.968 l 2.3906,15.73 z M 129.707,2.05078 l 22.922,0 26.18,104.37522 0.339,0 26.008,-104.37522 22.071,0 36.781,119.41422 -18.129,0 -28.578,-102.3244 -0.344,0 -25.828,102.3244 -24.305,0 -25.484,-102.3244 -0.344,0 -28.57,102.3244 -18.8166,0 L 129.707,2.05078 Z m 155.879,0 17.09,0 0,119.40222 -17.09,0 0,-119.40222 z M 395.766,119.246 c -8.2,2.902 -17.606,4.27 -25.489,4.27 -21.57,0 -38.32,-11.282 -38.32,-32.4926 0,-37.1367 51.34,-29.7734 51.34,-56.4726 0,-14.043 -13.695,-19.5117 -23.457,-19.5117 -8.731,0 -18.988,3.4179 -24.801,5.8203 L 333.328,4.96094 C 341.188,2.39062 349.398,0 357.777,0 c 23.981,0 43.629,10.0781 43.629,35.5742 0,39.3672 -51.328,34.0547 -51.328,56.9922 0,12.4926 11.301,15.9176 20.891,15.9176 8.898,0 13.687,-1.543 22.41,-4.968 l 2.387,15.73 z m 91.554,0 c -8.215,2.902 -17.625,4.27 -25.496,4.27 -21.566,0 -38.316,-11.282 -38.316,-32.4926 0,-37.1367 51.332,-29.7734 51.332,-56.4726 0,-14.043 -13.703,-19.5117 -23.461,-19.5117 -8.734,0 -18.992,3.4179 -24.801,5.8203 L 424.867,4.96094 C 432.738,2.39062 440.938,0 449.324,0 c 23.973,0 43.637,10.0781 43.637,35.5742 0,39.3672 -51.344,34.0547 -51.344,56.9922 0,12.4926 11.305,15.9176 20.895,15.9176 8.906,0 13.695,-1.543 22.406,-4.968 l 2.402,15.73 z M 590.336,2.05078 l 66.883,0 0,15.03902 -49.793,0 0,39.375 45.344,0 0,15.0274 -45.344,0 0,34.9338 49.793,0 0,15.039 -66.883,0 0,-119.41422 z m 100.102,39.53122 43.953,0 0,12.9766 -43.953,0 0,-12.9766 z m 98.019,64.844 14.563,0 c 10.609,0 26.359,-5.481 26.359,-20.5354 0,-15.7539 -13.348,-21.0664 -23.969,-21.0664 l -16.953,0 0,41.6018 z m -17.09,-104.37522 17.09,0 0,47.73442 16.781,0 c 21.571,0 42.262,9.4023 42.262,35.9375 0,27.1993 -20.344,35.7423 -44.832,35.7423 l -31.301,0 0,-119.41422 z m 82.653,0 17.968,0 12.137,30.11722 58.512,0 12.152,-30.11722 18.649,0 L 922.969,121.465 905,121.465 854.02,2.05078 Z m 83.148,44.12892 -47.559,0 23.782,59.2303 23.777,-59.2303 z m 79.242,-44.12892 17.09,0 0,49.96092 46.54,69.4533 -20.02,0 -34.73,-53.5431 -35.583,53.5431 -20.019,0 46.722,-69.4533 0,-49.96092 z m 86.92,0 17.09,0 0,103.35922 0.34,0 39.54,-103.35922 16.77,0 39.54,103.35922 0.34,0 0,-103.35922 17.09,0 0,119.41422 -28.22,0 -36.79,-99.2462 -37.49,99.2462 -28.21,0 0,-119.41422 z m 168.2,0 66.88,0 0,15.03902 -49.79,0 0,39.375 45.34,0 0,15.0274 -45.34,0 0,34.9338 49.79,0 0,15.039 -66.88,0 0,-119.41422 z m 100.1,0 17.09,0 0,98.22222 0.34,0 54.09,-98.22222 21.88,0 0,119.41422 -17.09,0 0,-96.1603 -0.33,0 -52.73,96.1603 -23.25,0 0,-119.41422 z m 153.48,0 17.1,0 0,104.37522 37.13,0 0,15.039 -91.36,0 0,-15.039 37.13,0 0,-104.37522 z M 1744.97,118.398 c -8.55,3.75 -17.63,5.118 -26.86,5.118 -36.45,0 -63.11,-24.4457 -63.11,-61.2504 C 1655,24.2773 1680.12,0 1717.93,0 c 7.02,0 18.14,0.507812 27.22,4.26562 l -1.04,16.59378 c -5.98,-3.6016 -17.45,-5.8203 -26,-5.8203 -24.82,0 -45,18.6523 -45,46.7187 0,26.875 18.3,46.7262 45.85,46.7262 8.74,0 17.11,-2.222 24.64,-6.679 l 1.37,16.593 z m 35.25,-56.6402 c 0,24.2969 13,46.9022 39.36,46.7262 26.37,0.176 39.38,-22.4293 39.38,-46.7262 0,-23.789 -11.82,-46.7187 -39.38,-46.7187 -27.55,0 -39.36,22.9297 -39.36,46.7187 m -18.12,0 C 1762.1,25.4766 1783.13,0 1819.58,0 c 36.46,0 57.49,25.4766 57.49,61.7578 0,35.4297 -21.2,61.7582 -57.49,61.7582 -36.28,0 -57.48,-26.3285 -57.48,-61.7582 m 145.44,-59.70702 17.09,0 0,103.35922 0.35,0 39.53,-103.35922 16.77,0 39.54,103.35922 0.34,0 0,-103.35922 17.09,0 0,119.41422 -28.21,0 -36.8,-99.2462 -37.48,99.2462 -28.22,0 0,-119.41422 z m 183.42,104.37522 14.55,0 c 10.61,0 26.37,-5.481 26.37,-20.5354 0,-15.7539 -13.36,-21.0664 -23.98,-21.0664 l -16.94,0 0,41.6018 z m -17.09,-104.37522 17.09,0 0,47.73442 16.77,0 c 21.58,0 42.25,9.4023 42.25,35.9375 0,27.1993 -20.34,35.7423 -44.81,35.7423 l -31.3,0 0,-119.41422 z m 103.01,0 66.87,0 0,15.03902 -49.79,0 0,39.375 45.35,0 0,15.0274 -45.35,0 0,34.9338 49.79,0 0,15.039 -66.87,0 0,-119.41422 z m 124.06,0 17.09,0 0,104.37522 37.13,0 0,15.039 -91.37,0 0,-15.039 37.15,0 0,-104.37522 z m 78.18,0 66.9,0 0,15.03902 -49.81,0 0,39.375 45.35,0 0,15.0274 -45.35,0 0,34.9338 49.81,0 0,15.039 -66.9,0 0,-119.41422 z m 100.1,0 17.09,0 0,98.22222 0.34,0 54.1,-98.22222 21.89,0 0,119.41422 -17.09,0 0,-96.1603 -0.34,0 -52.74,96.1603 -23.25,0 0,-119.41422 z M 2692.75,118.398 c -8.56,3.75 -17.62,5.118 -26.87,5.118 -36.45,0 -63.12,-24.4457 -63.12,-61.2504 C 2602.76,24.2773 2627.89,0 2665.71,0 c 7.02,0 18.15,0.507812 27.21,4.26562 l -1.03,16.59378 c -5.99,-3.6016 -17.45,-5.8203 -26.01,-5.8203 -24.81,0 -45,18.6523 -45,46.7187 0,26.875 18.31,46.7262 45.86,46.7262 8.72,0 17.12,-2.222 24.65,-6.679 l 1.36,16.593 z m 27.56,-116.34722 66.9,0 0,15.03902 -49.81,0 0,39.375 45.35,0 0,15.0274 -45.35,0 0,34.9338 49.81,0 0,15.039 -66.9,0 0,-119.41422" /><path
             id="path24"
             style="fill:#0b6fae;fill-opacity:1;fill-rule:nonzero;stroke:none"
             d="m 237.016,449.441 c -9.852,-48.179 -49.25,-88.269 -96.078,-88.269 -46.8208,0 -69.8521,40.09 -60.0005,88.269 9.8477,48.196 49.2575,88.262 96.0785,88.262 46.816,0 69.847,-40.066 60,-88.262 m 122.968,238.926 -74.14,0 -29.961,-146.601 -0.977,0 c -17.332,34.496 -54.281,44.629 -90.863,44.629 C 116.246,586.395 26.7852,561.543 3.46875,447.41 -11.2656,375.391 20.2656,312.5 110.984,312.5 c 39.02,0 81.399,11.664 109.11,44.629 l 0.98,0 c -2.386,-11.664 -3.801,-23.336 -5.211,-34.996 l 71.223,0 c 1.93,14.199 6.027,39.039 10.277,59.84 l 62.621,306.394" /><path
             id="path26"
             style="fill:#0b6fae;fill-opacity:1;fill-rule:nonzero;stroke:none"
             d="m 588.84,438.293 c -13.41,-60.871 -73.094,-83.195 -109.68,-83.195 -42.43,0 -51.312,23.332 -47.793,40.578 6.223,30.437 40.41,42.617 96.5,42.617 l 60.973,0 z m 82.019,38.543 c 18.239,89.277 -48.824,109.559 -117.593,109.559 -63.407,0 -134.418,-15.719 -155.106,-81.161 l 77.059,0 c 6.969,19.793 30.672,35.52 66.769,35.52 37.059,0 65.41,-11.672 56.18,-56.82 l -59.02,0 c -93.64,0 -169.613,-13.692 -185.882,-93.329 -7.469,-36.523 13.789,-78.105 99.632,-78.105 47.313,0 87.954,12.672 125.2,44.629 -2.379,-11.664 -4.282,-23.336 -5.2,-34.996 l 68.29,0 c 2.058,17.238 4.472,31.441 7.898,48.172 l 21.773,106.531" /><path
             id="path28"
             style="fill:#0b6fae;fill-opacity:1;fill-rule:nonzero;stroke:none"
             d="m 891.527,654.375 -15.867,-77.609 87.309,0 -9.949,-48.7 -87.313,0 -24.258,-118.703 c -5.703,-27.898 2.406,-43.101 30.699,-43.101 16.098,0 35.911,1.511 46.778,4.558 l -9.946,-48.687 c -20.523,-2.535 -43.371,-4.567 -63.851,-4.567 -74.145,0 -91.5,24.852 -79.27,84.7 l 25.719,125.8 -68.293,0 9.961,48.7 68.281,0 11.09,54.277 78.91,23.332" /><path
             id="path30"
             style="fill:#0b6fae;fill-opacity:1;fill-rule:nonzero;stroke:none"
             d="m 1197.56,438.293 c -13.41,-60.871 -73.09,-83.195 -109.67,-83.195 -42.44,0 -51.33,23.332 -47.8,40.578 6.22,30.437 40.41,42.617 96.5,42.617 l 60.97,0 z m 82.02,38.543 c 18.24,89.277 -48.82,109.559 -117.59,109.559 -63.41,0 -134.42,-15.719 -155.11,-81.161 l 77.06,0 c 6.98,19.793 30.67,35.52 66.77,35.52 37.07,0 65.41,-11.672 56.18,-56.82 l -59.01,0 c -93.65,0 -169.61,-13.692 -185.888,-93.329 -7.472,-36.523 13.789,-78.105 99.628,-78.105 47.31,0 87.95,12.672 125.21,44.629 -2.39,-11.664 -4.28,-23.336 -5.2,-34.996 l 68.28,0 c 2.06,17.238 4.48,31.441 7.9,48.172 l 21.77,106.531" /><path
             id="path32"
             style="fill:#7fb7ce;fill-opacity:1;fill-rule:nonzero;stroke:none"
             d="m 1500.25,654.375 -15.87,-77.609 87.32,0 -9.96,-48.7 -87.3,0 -24.26,-118.703 c -5.7,-27.898 2.41,-43.101 30.69,-43.101 16.1,0 35.92,1.511 46.8,4.558 l -9.96,-48.687 c -20.53,-2.535 -43.36,-4.567 -63.85,-4.567 -74.15,0 -91.51,24.852 -79.27,84.7 l 25.71,125.8 -68.29,0 9.96,48.7 68.28,0 11.1,54.277 78.9,23.332" /><path
             id="path34"
             style="fill:#7fb7ce;fill-opacity:1;fill-rule:nonzero;stroke:none"
             d="m 1616.19,512.852 c 4.97,24.343 8.56,46.668 11.11,63.914 l 71.22,0 c -2.25,-15.719 -4.38,-30.946 -7.58,-46.668 l 0.96,0 c 10.84,17.246 34.47,51.75 91.54,51.75 15.61,0 29.93,-1.528 46.77,-5.082 l -11.82,-57.832 c -4.19,1.015 -9.44,1.527 -15.2,2.035 -5.26,0.504 -11.5,1.011 -18.81,1.011 -59.99,0 -97.68,-26.882 -111.99,-96.882 l -21.04,-102.973 -74.14,0 38.98,190.727" /><path
             id="path36"
             style="fill:#7fb7ce;fill-opacity:1;fill-rule:nonzero;stroke:none"
             d="m 2050.74,438.293 c -13.43,-60.871 -73.1,-83.195 -109.68,-83.195 -42.43,0 -51.32,23.332 -47.79,40.578 6.22,30.437 40.41,42.617 96.5,42.617 l 60.97,0 z m 82.01,38.543 c 18.25,89.277 -48.81,109.559 -117.59,109.559 -63.4,0 -134.41,-15.719 -155.1,-81.161 l 77.06,0 c 6.97,19.793 30.67,35.52 66.77,35.52 37.07,0 65.41,-11.672 56.18,-56.82 l -59.02,0 c -93.64,0 -169.61,-13.692 -185.88,-93.329 -7.47,-36.523 13.78,-78.105 99.62,-78.105 47.32,0 87.94,12.672 125.21,44.629 -2.38,-11.664 -4.27,-23.336 -5.21,-34.996 l 68.3,0 c 2.06,17.238 4.48,31.441 7.89,48.172 l 21.77,106.531" /><path
             id="path38"
             style="fill:#7fb7ce;fill-opacity:1;fill-rule:nonzero;stroke:none"
             d="m 2217.91,516.406 c 4.56,22.317 8.04,44.129 10.39,60.352 l 71.21,0 c -1.94,-14.199 -3.77,-27.879 -6.66,-42.102 l 0.98,0 c 32.22,36.028 69.1,51.75 113.96,51.75 43.91,0 107.1,-24.863 90.21,-107.551 l -32.03,-156.73 -74.14,0 27.57,134.926 c 12.87,62.898 -11.93,77.605 -47.53,77.605 -38.54,0 -81.8,-27.898 -94.44,-89.773 l -25.11,-122.758 -74.13,0 39.72,194.281" /><path
             id="path40"
             style="fill:#7fb7ce;fill-opacity:1;fill-rule:nonzero;stroke:none"
             d="m 2621.91,400.234 c -1.27,-32.453 13.83,-42.097 50.9,-42.097 42.92,0 63.57,12.683 67.4,31.453 2.58,12.676 -4.43,21.301 -30.52,24.851 l -55.9,8.118 c -81.99,11.668 -86.32,50.222 -80.2,80.144 7.67,37.531 46.37,83.692 150.76,83.692 58.52,0 122.11,-18.25 108.41,-85.204 l -77.06,0 c 3.58,29.414 -13.86,39.563 -51.91,39.563 -27.79,0 -47.54,-10.656 -50.96,-27.395 -2.8,-13.691 0.91,-21.804 36.74,-27.898 l 69.32,-11.672 c 52.37,-8.621 67.82,-38.035 60.14,-75.574 -9.32,-45.656 -49.7,-85.715 -148.23,-85.715 -98.04,0 -135.87,17.738 -127.9,87.734 l 79.01,0" /></g></g></g></g></svg>